<?xml version="1.0" encoding="utf-8"?>
<!-- Generator: Adobe Illustrator 16.0.0, SVG Export Plug-In . SVG Version: 6.00 Build 0)  -->
<!DOCTYPE svg PUBLIC "-//W3C//DTD SVG 1.1//EN" "http://www.w3.org/Graphics/SVG/1.1/DTD/svg11.dtd">
<svg version="1.1" id="Layer_1" xmlns="http://www.w3.org/2000/svg" xmlns:xlink="http://www.w3.org/1999/xlink" x="0px" y="0px"
	 width="25px" height="25px" viewBox="0.33 0.25 2.4 2.4" enable-background="new 0 0 10 10" xml:space="preserve">
<path opacity="0.7" fill="#E6E7E8" d="M1.975,2.61H1.062c-0.397,0-0.721-0.324-0.721-0.721V0.976c0-0.397,0.324-0.721,0.721-0.721
	h0.913c0.397,0,0.721,0.324,0.721,0.721v0.913C2.696,2.286,2.372,2.61,1.975,2.61 M1.062,0.343c-0.349,0-0.633,0.284-0.633,0.633
	v0.913c0,0.35,0.284,0.633,0.633,0.633h0.913c0.349,0,0.633-0.284,0.633-0.633V0.976c0-0.35-0.284-0.633-0.633-0.633H1.062z"/>
<path opacity="0.7" fill="#E6E7E8" d="M1.975,2.61H1.062c-0.397,0-0.721-0.324-0.721-0.721V0.976c0-0.397,0.324-0.721,0.721-0.721
	h0.913c0.397,0,0.721,0.324,0.721,0.721v0.913C2.696,2.286,2.372,2.61,1.975,2.61z M1.062,0.343c-0.349,0-0.633,0.284-0.633,0.633
	v0.913c0,0.35,0.284,0.633,0.633,0.633h0.913c0.349,0,0.633-0.284,0.633-0.633V0.976c0-0.35-0.284-0.633-0.633-0.633H1.062z"/>
<path opacity="0.7" fill="#E6E7E8" d="M1.833,0.811L1.649,0.807C1.577,0.805,1.508,0.833,1.456,0.884
	c-0.052,0.05-0.081,0.119-0.081,0.191V1.25h-0.17c-0.007,0-0.013,0.005-0.013,0.012V1.48c0,0.007,0.005,0.013,0.013,0.013h0.17
	v0.552c0,0.007,0.006,0.013,0.013,0.013h0.225c0.007,0,0.013-0.006,0.013-0.013V1.494h0.172c0.006,0,0.011-0.005,0.012-0.012
	l0.029-0.218c0-0.004-0.001-0.008-0.003-0.011C1.833,1.251,1.83,1.25,1.826,1.25h-0.2l0-0.11c0-0.001-0.004-0.054,0.023-0.084
	C1.662,1.04,1.68,1.034,1.703,1.034h0.129c0.007,0,0.013-0.006,0.013-0.013V0.824C1.845,0.816,1.84,0.811,1.833,0.811"/>
</svg>
