<?xml version="1.0" encoding="utf-8"?>
<!-- Generator: Adobe Illustrator 16.0.0, SVG Export Plug-In . SVG Version: 6.00 Build 0)  -->
<!DOCTYPE svg PUBLIC "-//W3C//DTD SVG 1.1//EN" "http://www.w3.org/Graphics/SVG/1.1/DTD/svg11.dtd">
<svg version="1.1" id="Layer_1" xmlns="http://www.w3.org/2000/svg" xmlns:xlink="http://www.w3.org/1999/xlink" x="0px" y="0px"
	 width="25px" height="25px" viewBox="0.33 0.25 2.4 2.4" enable-background="new 0 0 10 10" xml:space="preserve">
<path opacity="0.7" fill="#E6E7E8" d="M1.975,2.61H1.062c-0.397,0-0.721-0.324-0.721-0.721V0.976c0-0.397,0.324-0.721,0.721-0.721
	h0.913c0.397,0,0.721,0.324,0.721,0.721v0.913C2.696,2.286,2.372,2.61,1.975,2.61 M1.062,0.343c-0.349,0-0.633,0.284-0.633,0.633
	v0.913c0,0.35,0.284,0.633,0.633,0.633h0.913c0.349,0,0.633-0.284,0.633-0.633V0.976c0-0.35-0.284-0.633-0.633-0.633H1.062z"/>
<path opacity="0.7" fill="#E6E7E8" d="M1.975,2.61H1.062c-0.397,0-0.721-0.324-0.721-0.721V0.976c0-0.397,0.324-0.721,0.721-0.721
	h0.913c0.397,0,0.721,0.324,0.721,0.721v0.913C2.696,2.286,2.372,2.61,1.975,2.61z M1.062,0.343c-0.349,0-0.633,0.284-0.633,0.633
	v0.913c0,0.35,0.284,0.633,0.633,0.633h0.913c0.349,0,0.633-0.284,0.633-0.633V0.976c0-0.35-0.284-0.633-0.633-0.633H1.062z"/>
<circle opacity="0.7" fill="none" stroke="#E6E7E8" stroke-width="0.1" stroke-miterlimit="10" cx="1.519" cy="1.432" r="0.472"/>
<circle opacity="0.7" fill="#E6E7E8" cx="2.169" cy="0.778" r="0.125"/>
</svg>
