<?xml version="1.0" encoding="utf-8"?>
<!-- Generator: Adobe Illustrator 16.0.0, SVG Export Plug-In . SVG Version: 6.00 Build 0)  -->
<!DOCTYPE svg PUBLIC "-//W3C//DTD SVG 1.1//EN" "http://www.w3.org/Graphics/SVG/1.1/DTD/svg11.dtd">
<svg version="1.1" id="Layer_1" xmlns="http://www.w3.org/2000/svg" xmlns:xlink="http://www.w3.org/1999/xlink" x="0px" y="0px"
	 width="25px" height="25px" viewBox="0.37 0.25 2.4 2.4" enable-background="new 0 0 2.8 2.8" xml:space="preserve">
<path opacity="0.7" fill="#E6E7E8" d="M2.04,2.65H1.121c-0.401,0-0.727-0.326-0.727-0.727v-0.92c0-0.4,0.326-0.727,0.727-0.727H2.04
	c0.4,0,0.727,0.326,0.727,0.727v0.92C2.767,2.324,2.44,2.65,2.04,2.65 M1.121,0.366c-0.353,0-0.639,0.286-0.639,0.638v0.92
	c0,0.353,0.286,0.639,0.639,0.639H2.04c0.352,0,0.638-0.286,0.638-0.639v-0.92c0-0.352-0.286-0.638-0.638-0.638H1.121z"/>
<path opacity="0.7" fill="#E6E7E8" d="M2.04,2.65H1.121c-0.401,0-0.727-0.326-0.727-0.727v-0.92c0-0.4,0.326-0.727,0.727-0.727H2.04
	c0.4,0,0.727,0.326,0.727,0.727v0.92C2.767,2.324,2.44,2.65,2.04,2.65z M1.121,0.366c-0.353,0-0.639,0.286-0.639,0.638v0.92
	c0,0.353,0.286,0.639,0.639,0.639H2.04c0.352,0,0.638-0.286,0.638-0.639v-0.92c0-0.352-0.286-0.638-0.638-0.638H1.121z"/>
<rect x="1.067" y="1.271" opacity="0.7" fill="#E6E7E8" width="0.217" height="0.743"/>
<path opacity="0.7" fill="#E6E7E8" d="M1.175,0.945c-0.065,0-0.118,0.054-0.118,0.12c0,0.064,0.053,0.118,0.118,0.118
	c0.066,0,0.119-0.054,0.119-0.118C1.294,0.999,1.241,0.945,1.175,0.945"/>
<path opacity="0.7" fill="#E6E7E8" d="M1.96,1.269C1.758,1.211,1.651,1.347,1.651,1.347L1.625,1.249H1.426v0.764h0.232V1.631V1.56
	c0-0.067,0.055-0.122,0.123-0.122c0.067,0,0.123,0.055,0.123,0.122v0.071v0.382h0.232V1.631C2.136,1.631,2.162,1.324,1.96,1.269"/>
</svg>
