<?xml version="1.0" encoding="utf-8"?>
<!-- Generator: Adobe Illustrator 16.0.0, SVG Export Plug-In . SVG Version: 6.00 Build 0)  -->
<!DOCTYPE svg PUBLIC "-//W3C//DTD SVG 1.1//EN" "http://www.w3.org/Graphics/SVG/1.1/DTD/svg11.dtd">
<svg version="1.1" id="Layer_1" xmlns="http://www.w3.org/2000/svg" xmlns:xlink="http://www.w3.org/1999/xlink" x="0px" y="0px"
	 width="25px" height="25px" viewBox="0.28 0.20 2.5 2.5" enable-background="new 0 0 10 10" xml:space="preserve">
<path opacity="0.7" fill="#E6E7E8" d="M2.002,2.61H1.047c-0.417,0-0.756-0.327-0.756-0.729V0.96c0-0.401,0.339-0.729,0.756-0.729
	h0.956c0.416,0,0.755,0.327,0.755,0.729v0.921C2.758,2.283,2.418,2.61,2.002,2.61 M1.047,0.32c-0.366,0-0.665,0.287-0.665,0.64
	v0.921c0,0.353,0.298,0.64,0.665,0.64h0.956c0.366,0,0.664-0.287,0.664-0.64V0.96c0-0.354-0.298-0.64-0.664-0.64H1.047z"/>
<path opacity="0.7" fill="#E6E7E8" d="M2.002,2.61H1.047c-0.417,0-0.756-0.327-0.756-0.729V0.96c0-0.401,0.339-0.729,0.756-0.729
	h0.956c0.416,0,0.755,0.327,0.755,0.729v0.921C2.758,2.283,2.418,2.61,2.002,2.61z M1.047,0.32c-0.366,0-0.665,0.287-0.665,0.64
	v0.921c0,0.353,0.298,0.64,0.665,0.64h0.956c0.366,0,0.664-0.287,0.664-0.64V0.96c0-0.354-0.298-0.64-0.664-0.64H1.047z"/>
<path opacity="0.7" fill="#E6E7E8" d="M1.936,0.84l-0.92,0.511C0.942,1.392,0.953,1.497,1.032,1.523l0.244,0.082l0.552-0.417
	L1.445,1.662v0.275c0,0.029,0.036,0.044,0.058,0.024l0.144-0.133L1.83,1.99c0.06,0.053,0.157,0.016,0.164-0.063L2.082,0.93
	C2.089,0.854,2.004,0.801,1.936,0.84"/>
</svg>
